#!OML:ASF X:\für Bonn\!DataBase\2005_08_11_Bastian_Final\c3d\Bastian.ASF
:FULLY-SPECIFIED
:DEGREES
309
root 22.6378 16.0212 -1.97506 360.928 -59.9171 34.7789
lowerback 71.889 -6.57423 14.8589
upperback 14.0467 0.991183 -1.83455
thorax -4.21398 0.858439 -8.28528
lowerneck -0.750392 -9.9962 7.68829
upperneck -31.938 -10.0132 15.5116
head -9.70549 -8.04307 5.12796
rclavicle 1.36764e-013 6.20208e-014
rhumerus 76.9396 -16.9024 -72.4897
rradius 11.6087
rwrist 27.2896
rhand -38.5041 -10.9227
rfingers 7.12502
rthumb -11.5255 -40.5858
lclavicle 1.36764e-013 6.20208e-014
lhumerus -12.7974 -29.8966 85.8376
lradius 48.1991
lwrist 33.1006
lhand -12.1278 -16.1236
lfingers 7.12502
lthumb 13.9338 13.3895
rfemur -73.407 -18.3589 11.8338
rtibia 71.2459
rfoot -21.0703 -8.97485
rtoes 0.171195
lfemur -65.8161 -11.075 -38.7563
ltibia 47.1524
lfoot -1.2808 -16.018
ltoes -10.2255
310
root 22.6413 16.023 -1.97551 361.136 -59.8224 34.5065
lowerback 71.7994 -6.5457 14.8688
upperback 14.0359 1.02406 -1.78459
thorax -4.22827 0.863192 -8.24697
lowerneck -0.594418 -9.99125 7.6826
upperneck -31.9729 -9.97652 15.5243
head -9.74848 -8.02908 5.14581
rclavicle 1.90833e-014 1.74931e-014
rhumerus 76.5065 -16.7746 -72.0644
rradius 11.747
rwrist 26.9981
rhand -38.4691 -10.9742
rfingers 7.12502
rthumb -11.4917 -40.6392
lclavicle 1.90833e-014 1.74931e-014
lhumerus -12.9518 -29.8714 85.9922
lradius 48.0797
lwrist 33.0771
lhand -12.0824 -16.1216
lfingers 7.12502
lthumb 13.9776 13.3885
rfemur -73.3271 -18.4121 11.9357
rtibia 71.214
rfoot -21.0838 -8.97777
rtoes 0.335348
lfemur -65.7594 -11.1049 -38.6676
ltibia 47.1326
lfoot -1.26382 -16.074
ltoes -10.309
311
root 22.6456 16.0265 -1.97609 361.3 -59.739 34.2415
lowerback 71.7387 -6.54856 14.91
upperback 14.0185 1.04381 -1.77951
thorax -4.24601 0.868869 -8.2665
lowerneck -0.380024 -10.0085 7.68913
upperneck -32.0357 -9.94331 15.5887
head -9.8112 -8.02643 5.18769
rclavicle 0 -5.40694e-014
rhumerus 76.0523 -16.6952 -71.8652
rradius 11.9472
rwrist 26.9574
rhand -38.4776 -11.0815
rfingers 7.12502
rthumb -11.4999 -40.746
lclavicle 0 -5.40694e-014
lhumerus -13.116 -29.9635 86.0954
lradius 47.9791
lwrist 33.0805
lhand -12.1399 -16.0663
lfingers 7.12502
lthumb 13.9222 13.4477
rfemur -73.1974 -18.4504 12.0321
rtibia 71.1518
rfoot -21.0922 -9.01866
rtoes 0.185502
lfemur -65.6667 -11.0909 -38.6017
ltibia 47.1009
lfoot -1.22075 -16.1381
ltoes -10.4009
312
root 22.6488 16.0315 -1.97566 361.355 -59.703 34.0518
lowerback 71.7389 -6.50821 14.8645
upperback 13.9823 1.06163 -1.76785
thorax -4.29173 0.866346 -8.24377
lowerneck -0.126801 -10.0091 7.69271
upperneck -32.0843 -9.89551 15.6082
head -9.87915 -8.01006 5.21461
rclavicle -5.08889e-014 -8.11041e-014
rhumerus 75.4909 -16.4745 -71.2793
rradius 12.1243
rwrist 26.4824
rhand -38.572 -11.1825
rfingers 7.12502
rthumb -11.5909 -40.842
lclavicle -5.08889e-014 -8.11041e-014
lhumerus -13.3407 -29.9882 86.2358
lradius 47.8864
lwrist 33.0759
lhand -12.151 -16.0583
lfingers 7.12502
lthumb 13.9115 13.4564
rfemur -73.0205 -18.4584 12.0746
rtibia 71.0775
rfoot -21.0835 -8.99997
rtoes 0.325905
lfemur -65.5153 -11.0714 -38.538
ltibia 47.0409
lfoot -1.18754 -16.1603
ltoes -10.3461
313
root 22.6513 16.0383 -1.97537 361.416 -59.6927 33.8606
lowerback 71.7336 -6.4716 14.8389
upperback 13.9452 1.083 -1.78438
thorax -4.33668 0.869597 -8.26325
lowerneck 0.140503 -10.0309 7.70192
upperneck -32.1225 -9.86671 15.6575
head -9.9439 -8.00561 5.25251
rclavicle -3.18055e-014 -1.74931e-014
rhumerus 74.9285 -16.2964 -70.821
rradius 12.3222
rwrist 26.1526
rhand -38.6615 -11.2696
rfingers 7.12502
rthumb -11.6772 -40.9242
lclavicle -3.18055e-014 -1.74931e-014
lhumerus -13.5638 -30.0563 86.3451
lradius 47.8256
lwrist 33.0388
lhand -12.1974 -15.981
lfingers 7.12502
lthumb 13.8667 13.5368
rfemur -72.8365 -18.4542 12.1463
rtibia 70.9741
rfoot -21.0875 -9.00642
rtoes 0.243316
lfemur -65.3622 -10.9842 -38.5102
ltibia 46.9636
lfoot -1.15651 -16.2363
ltoes -10.2895
314
root 22.6546 16.0461 -1.97411 361.408 -59.6943 33.7111
lowerback 71.7707 -6.4442 14.7849
upperback 13.8896 1.08287 -1.817
thorax -4.40587 0.861985 -8.28094
lowerneck 0.420036 -10.0412 7.69505
upperneck -32.1508 -9.82361 15.7032
head -10.0068 -7.99125 5.2903
rclavicle 5.08889e-014 -3.49861e-014
rhumerus 74.3056 -16.0193 -70.1655
rradius 12.5146
rwrist 25.6123
rhand -38.6457 -11.3666
rfingers 7.12502
rthumb -11.662 -41.0221
lclavicle 5.08889e-014 -3.49861e-014
lhumerus -13.8559 -30.0988 86.4599
lradius 47.7864
lwrist 33.0368
lhand -12.2831 -15.965
lfingers 7.12502
lthumb 13.7842 13.5584
rfemur -72.6202 -18.4399 12.1693
rtibia 70.8614
rfoot -21.0696 -8.97477
rtoes 0.32597
lfemur -65.1545 -10.913 -38.4895
ltibia 46.8522
lfoot -1.12865 -16.2628
ltoes -10.4095
